<?xml version="1.0" encoding="UTF-8"?>
<svg id="LOGO-black_copy" data-name="LOGO-black copy" xmlns="http://www.w3.org/2000/svg" viewBox="0 0 4559.35 2351.48">
  <defs>
    <style>
      .cls-1 {
        stroke-width: 8px;
      }

      .cls-1, .cls-2 {
        stroke: #fff;
        stroke-miterlimit: 10;
      }

      .cls-1, .cls-2, .cls-3 {
        fill: #fff;
      }

      .cls-2 {
        stroke-width: 6px;
      }

      .cls-4 {
        fill: #ffa10b;
      }

      .cls-4, .cls-3 {
        stroke-width: 0px;
      }
    </style>
  </defs>
  <g id="frame_for_white" data-name="frame for white">
    <g id="Layer_4_copy_2" data-name="Layer 4 copy 2">
      <polygon class="cls-4" points="0 1299.81 0 409.68 376.59 484.78 377.01 1129.97 0 1299.81"/>
      <polyline class="cls-3" points="1194.33 191.81 1193.61 1359.37 1334.22 1301.21 1334.22 74.25 373.27 485.93 840.88 485.19 840.4 1505.22 890.97 1484.58 891.32 443.06 928.62 412.21 928.62 1468.92 979.41 1448.05 978.34 370.45 1016.95 338.56 1016.95 1432.68 1066.05 1412.14 1065.96 298.22 1104.97 265.89 1104.88 1395.84 1156.24 1374.99 1156.07 223.7"/>
      <path class="cls-3" d="M1896.48,650.73l-313.41-435.04,1.49,434.55h-89.4V73.68l99.41-1.18,318.39,445.84.31-445.84,88.54.61-.72,577.38-104.61.24Z"/>
      <path class="cls-3" d="M3151.31,1296.31c-17.93,0-35.9-.77-53.33-3.62-39.26-6.42-58.2-37.87-59.01-74.83-1.21-55.43-1.09-175.93-1.05-202.56l-94.15.08.17-72.41,94.32-.4v-137.2s78.81-67.61,78.81-67.61l.02,204.91,90.39.28-.09,72.56-90.33-.23c-.35,63.69-.54,170.2,1.17,182.75,1.1,8.04,3.49,10.1,7.99,13.33,4.87,3.49,13.6,4.58,17.53,4.66,16.05.35,35.98.2,47.89.12,3.2-.02,5.84-.04,7.67-.05.95,0,1.68,0,2.18,0,5.27.07,5.46,4.3,5.47,4.78l-.46,74.37-4.69.07c-6.21.1-12.63.26-18.83.42-10.47.27-21.08.54-31.7.54Z"/>
      <path class="cls-3" d="M1793.19,1175.23l62.07,33.94-2.99,4.4c-36.3,53.44-96.5,85.35-161.02,85.35-107.25,0-194.51-87.25-194.51-194.51,0-51.96,20.23-100.81,56.96-137.55,36.73-36.73,85.59-56.96,137.55-56.96,66.25,0,127.32,33.24,163.36,88.89l2.79,4.31-63.46,35.87-2.48-3.79c-11.2-17.08-25.53-30.34-42.61-39.41-17.36-9.23-37.15-13.91-58.82-13.91-33.44,0-64.29,12.44-86.88,35.02-22.6,22.6-35.03,53.45-35.03,86.88s12.76,64.14,35.92,86.86c23.08,22.62,54.28,35.06,87.84,35.06,41.92,0,76.08-16.28,98.81-47.07l2.5-3.39Z"/>
      <polygon class="cls-3" points="3780.67 801.95 3780.67 1297.36 3704.08 1297.36 3704.08 739.19 3780.67 801.95"/>
      <path class="cls-3" d="M2972.55,649.95h-92.12l-2.55-649.95,92.73,76.99,1.94,572.95Z"/>
      <path class="cls-4" d="M3080.2,186.02v-112.29l92.46.53v73.13l-92.46,38.63Z"/>
      <path class="cls-3" d="M3170.49,649.26h-91.22l.75-424.86h91.95l-1.49,424.86Z"/>
      <path class="cls-3" d="M4280.4,509.5h.25c2.5,22.77,18.03,42.82,37.74,54.66,19.7,11.84,43.14,16.27,66.15,16.82,22.1.52,45.39-2.8,63.01-16.08,17.62-13.28,27.31-38.73,17.12-58.25-7.08-13.57-21.67-21.46-35.99-27.02-38.26-14.83-79.85-18.59-119.44-29.42-39.59-10.84-79.69-31.19-98.58-67.46-15.53-29.83-13.85-67.05,1.27-97.09,15.12-30.04,42.61-52.99,73.73-66.02,31.12-13.03,65.67-16.64,99.34-14.09,39.58,2.99,79.41,14.84,110.3,39.64,30.9,24.79,54.78,63.04,51.73,102.42-26.2.16-55.52,1.02-81.72,1.19-4.63-22.41-18.93-42.36-37.75-55.51-18.82-13.16-41.87-19.74-64.85-20.38-20.83-.58-42.76,4.1-58.29,17.92-15.53,13.83-22.47,38.29-11.98,56.2,7.16,12.22,20.61,19.33,33.86,24.46,34.67,13.44,72.14,17.62,108.38,26.05,36.23,8.43,73.05,22.24,97.59,50.07,30.12,34.14,35.8,87.49,13.54,127.15-24.8,44.21-77.16,66.39-127.66,72.55-83.72,10.21-182.33-19.82-217.89-102.43-5.04-11.72-8.64-24.05-10.62-36.65,30.25.42,60.5.85,90.75,1.27Z"/>
      <path class="cls-3" d="M2578.02,649.4l-.62-446.55,95.87.2.31,48.76c2.8-3.75,6.32-7.88,10.71-12.16,17.89-17.4,33.92-28.36,57.2-33.96,31.01-7.46,74.86,1.25,76.33,1.59l3.9.82.24,88.01-7.32-1.88c-6.31-1.31-25.74-6.78-57.92-2.35-21.56,2.97-43.03,11.31-57.44,25.65-6.33,6.3-12.92,13.45-17.84,25.46-2.87,7-7.7,21.44-7.82,39.47-.41,57.83,1.07,259.62,1.07,261.63l-1,4.98-95.67.33Z"/>
      <path class="cls-3" d="M2394.72,649.32l.03-5.05c.05-8.39.02-16.95,0-25.22-.02-4.77-.03-9.63-.03-14.5-21.6,17.18-46.99,30.03-74.06,37.4-30.7,8.37-62.9,9.51-93.12,3.32-27.16-5.57-51.76-17.53-73.04-34.59-22.01-17.64-38.93-40.43-48.92-65.91-13.49-34.4-15.73-74.24-16.14-108.67-.9-75.75-1.05-226.36-1.04-227.86l1.03-4.98,92.91.07-.21,227.27c-.04,40.43,6.94,70.84,21.33,92.97,14.59,22.43,37.39,31.9,53.95,35.89,23.06,5.56,50.33,4.89,71.16-1.74,16.63-5.29,30.1-14.42,42.38-28.72,21.97-25.58,23.86-62.68,23.93-101.65.14-71.9.07-217.6.06-219.06v-5.01s94.88.06,94.88.06v5.01c0,1.53-.08,154.97.03,230.84.06,37.94-.17,203.39-.17,205.05v5s-94.98.1-94.98.1Z"/>
      <path class="cls-3" d="M2673.86,967.67c-34.56-36.77-82.28-57.02-134.39-57.02s-94.68,16.31-128.36,46.94l-1.17-46.88-75.04.59,1.1,645.03,74.72-60.51.85-245.66c36.16,31.83,79.03,49.12,127.9,49.12,52.1,0,99.83-20.25,134.39-57.02,33.84-36.01,52.47-84.77,52.47-137.3s-18.64-101.28-52.47-137.29ZM2651.42,1104.89c-.5,32.41-12.95,62.11-35.07,83.61-22.03,21.43-52.06,33.22-84.58,33.22s-61.98-12.27-83.74-34.57c-21.67-22.21-33.6-52.42-33.6-85.07s12.23-61.21,34.41-82.97c22.29-21.87,52.15-33.82,84.34-33.82.84,0,1.69,0,2.53.02,33.12.63,62.99,13.17,84.11,35.3,20.87,21.88,32.09,51.8,31.59,84.27Z"/>
      <path class="cls-3" d="M2798.32,1296.94v-354.06h84.86l-.1,353.95-84.76.11Z"/>
      <path class="cls-3" d="M3506.44,1080.53l20.01,2s10.1-50.48-13.46-76.04c-39.24-42.57-118.07-39.4-160.64,8.45l-49.12-43.12c57.51-60.43,218.54-97.01,273.97,2.18,31.11,55.67,1.94,198.32,14.37,229.04,6.19,15.28,30.52,18.34,43.48,18.01l.55,79.68c-31.87,2.99-95.33,1.23-112.97-48.03-57.2,77.31-231.23,66.44-250.5-40.93-7.64-42.57,9.28-93.2,66.58-122.25,39.84-20.19,120.98-13,167.73-8.99ZM3501.53,1189.41c13.92-20.47,17.19-49.94,17.19-49.94,0,0-77.34-9.37-115.61-5.2-60.03,6.55-82.96,68.77-29.47,94.96,36.43,17.84,97.32,5.13,127.89-39.83Z"/>
      <g>
        <g>
          <path class="cls-1" d="M1901.07,2329.56l-9.48-32.35c-3.31-11.37-12.35-19.23-22.93-19.23h-39.24v65.14h-18.3v-154.1h69.66c32.19,0,55.11,18.36,55.11,44.15,0,21.42-16.09,37.82-42.11,41.31v.22c8.38,4.15,13.67,11.59,16.31,20.77l7.72,27.76c1.32,5.25,4.41,8.96,9.26,8.96s10.14-3.93,13.67-10.05l9.26,10.71c-6.39,8.74-15.65,14.65-26.45,14.65-12.35,0-19.4-7.43-22.49-17.92ZM1880.78,2261.8c21.6,0,36.82-11.59,36.82-28.2s-15.21-28.42-36.82-28.42h-51.37v56.61h51.37Z"/>
          <path class="cls-1" d="M2018.34,2189.01h106.26v16.17h-88.4v50.49h79.58v15.74h-79.58v55.52h90.61v16.18h-108.46v-154.1Z"/>
          <path class="cls-1" d="M2250.04,2189.01h22.05l59.96,154.1h-19.4l-14.11-36.94h-74.95l-14.33,36.94h-19.62l60.4-154.1ZM2293.03,2289.99l-31.75-83.06h-.44l-31.97,83.06h64.15Z"/>
          <path class="cls-1" d="M2402.59,2189.01h18.3v137.93h79.58v16.18h-97.88v-154.1Z"/>
          <path class="cls-1" d="M2612.02,2205.18h-52.03v-16.17h122.35v16.17h-52.03v137.93h-18.3v-137.93Z"/>
          <path class="cls-1" d="M2797.87,2285.84l-56-96.83h20.28l44.97,79.35h.22l43.87-79.35h20.72l-55.78,96.83v57.27h-18.3v-57.27Z"/>
        </g>
        <rect class="cls-1" x="847.9" y="2258.15" width="800.04" height="17.83"/>
        <rect class="cls-1" x="3005.72" y="2256.15" width="763.52" height="17.15"/>
      </g>
      <g>
        <path class="cls-2" d="M989.93,2047.62c-34.29,0-62.74-6.74-85.35-20.22-22.61-13.48-39.46-32.31-50.55-56.49s-16.63-52.53-16.63-85.07,5.47-59.57,16.4-83.75c10.93-24.18,27.56-43.08,49.88-56.71,22.32-13.63,50.47-20.44,84.47-20.44,21.87,0,40.42,2.05,55.64,6.15,15.22,4.11,26.83,9.75,34.81,16.93,7.98,7.18,11.97,15.46,11.97,24.84,0,9.97-3.18,17.52-9.53,22.64-6.36,5.13-16.92,8.28-31.7,9.45,0-18.17-2.15-32.82-6.43-43.96-4.29-11.13-11.02-19.19-20.18-24.18-9.16-4.98-21.28-7.47-36.36-7.47-23.94,0-43.23,5.21-57.86,15.61-14.63,10.41-25.27,27.11-31.92,50.12-6.65,23.01-9.98,53.27-9.98,90.78s3.69,68.22,11.08,91.22c7.38,23.01,18.34,41.25,35.47,50.34,15.94,8.46,37.61,11.71,63.92,11.71,8.57,0,16.85-.66,24.83-1.98,7.98-1.32,15.07-2.86,21.28-4.62l-.07-100.08c0-6.74-1.33-12.31-3.99-16.7-2.66-4.4-6.73-7.69-12.19-9.89-5.47-2.2-12.19-3.3-20.18-3.3h-1.77v-4.4h115.28v4.4h-1.77c-7.69,0-13.75,1.17-18.18,3.52-4.43,2.35-7.61,5.87-9.53,10.55-1.93,4.69-2.88,10.55-2.88,17.59v93.2c-14.78,6.75-30,11.8-45.67,15.17-15.67,3.37-33.11,5.06-52.32,5.06Z"/>
        <path class="cls-2" d="M1167.72,2043.22v-4.4h5.76c7.98,0,14.7-1.17,20.17-3.52,5.47-2.34,9.53-5.86,12.19-10.55,2.66-4.68,3.99-10.55,3.99-17.59v-243.55c0-6.74-1.33-12.31-3.99-16.7-2.66-4.4-6.73-7.69-12.19-9.89-5.47-2.2-12.19-3.3-20.17-3.3h-5.76v-4.4h119.27c25.72,0,47,3.15,63.85,9.45,16.85,6.31,29.41,15.61,37.69,27.92,8.27,12.31,12.41,27.26,12.41,44.84s-3.48,30.99-10.42,41.99c-6.95,10.99-15.82,19.56-26.6,25.72-10.79,6.15-21.95,10.84-33.48,14.07l62.52,96.72c6.21,9.38,11.6,17.22,16.18,23.52,4.58,6.31,8.79,11.29,12.64,14.95,3.84,3.67,7.46,6.31,10.86,7.91,3.39,1.61,6.87,2.42,10.42,2.42h1.33v4.4h-6.21c-13.9,0-25.35-.51-34.36-1.54-9.02-1.02-16.48-2.86-22.39-5.5-5.92-2.64-11.16-6.52-15.74-11.65-4.59-5.12-9.53-11.79-14.85-20l-68.28-104.24h-27.93v106.88c0,7.03,1.33,12.9,3.99,17.59,2.66,4.69,6.72,8.21,12.19,10.55,5.46,2.35,12.19,3.52,20.17,3.52h5.76v4.4h-129.02ZM1285.66,1892.43c16.55,0,29.78-2.56,39.68-7.69,9.9-5.13,17.07-13.41,21.5-24.84,4.43-11.43,6.65-26.52,6.65-45.28s-2.29-34.95-6.87-46.82c-4.59-11.87-11.9-20.51-21.95-25.94-10.05-5.42-23.35-8.13-39.9-8.13h-30.15v158.71h31.04Z"/>
        <path class="cls-2" d="M1480.88,2043.02v-4.4h5.76c7.98,0,14.7-1.17,20.17-3.52,5.47-2.34,9.53-5.86,12.19-10.55,2.66-4.68,3.99-10.55,3.99-17.59v-243.55c0-6.74-1.33-12.31-3.99-16.7-2.66-4.4-6.73-7.69-12.19-9.89-5.47-2.2-12.19-3.3-20.17-3.3h-5.76v-4.4h223.02l2.66,76.93h-4.43l-.89-14.51c-.89-14.65-3.4-26.23-7.54-34.73-4.14-8.5-10.57-14.51-19.29-18.03-8.72-3.52-20.62-5.27-35.69-5.27h-70.94v142.88h111.29v7.19h-111.29l-.16,152.71,82.19.2c15.96,0,28.67.37,38.13-3.14,9.46-3.52,16.33-9.52,20.62-18.02,4.28-8.5,6.88-20.07,7.76-34.73l.89-14.51h4.43l-3.1,76.93h-237.65Z"/>
        <path class="cls-2" d="M2777.41,2043.37v-4.4h12.86c6.5,0,8.16-1.02,12.6-3.08,4.43-2.05,8.27-5.56,11.53-10.55,3.25-4.98,6.35-11.87,9.31-20.66l96.66-275.21h26.42l111.29,286.2c2.36,5.86,4.73,10.48,7.09,13.85,2.36,3.37,5.1,5.79,8.2,7.25,3.1,1.47,6.72,2.2,10.86,2.2h5.76v4.4h-121.93v-4.4h10.2c11.23,0,19.36-1.32,24.39-3.96,5.02-2.64,7.54-7.32,7.54-14.07,0-1.76-.15-3.58-.44-5.5-.3-1.9-.66-4.02-1.11-6.37-.44-2.34-1.26-4.84-2.44-7.47l-26.58-69.54h-122.06l-22.95,66.46c-.89,2.35-1.63,4.69-2.22,7.03-.6,2.35-1.04,4.47-1.33,6.38-.3,1.91-.44,3.74-.44,5.5,0,7.91,3.55,13.48,10.64,16.7,7.09,3.23,18.47,4.84,34.14,4.84h10.2v4.4h-108.19ZM2860.32,1925.11h117.05l-32.37-85.73c-3.85-9.96-7.39-19.49-10.64-28.58-3.26-9.08-6.28-17.81-9.09-26.16-2.81-8.35-5.4-16.49-7.76-24.4-2.07,6.45-3.99,12.38-5.77,17.8-1.77,5.43-3.55,10.77-5.32,16.05-1.77,5.28-3.77,10.92-5.99,16.93-2.22,6.01-4.65,12.97-7.32,20.88l-32.81,93.2Z"/>
        <path class="cls-2" d="M1762.29,2043.22v-4.4h12.86c6.5,0,8.16-1.02,12.6-3.08,4.43-2.05,8.27-5.56,11.53-10.55,3.25-4.98,6.35-11.87,9.31-20.66l96.66-275.21h26.42l111.29,286.2c2.36,5.86,4.73,10.48,7.09,13.85,2.36,3.37,5.1,5.79,8.2,7.25,3.1,1.47,6.72,2.2,10.86,2.2h5.76v4.4h-121.93v-4.4h10.2c11.23,0,19.36-1.32,24.39-3.96,5.02-2.64,7.54-7.32,7.54-14.07,0-1.76-.15-3.58-.44-5.5-.3-1.9-.66-4.02-1.11-6.37-.44-2.34-1.26-4.84-2.44-7.47l-26.58-69.54h-122.06l-22.95,66.46c-.89,2.35-1.63,4.69-2.22,7.03-.6,2.35-1.04,4.47-1.33,6.38-.3,1.91-.44,3.74-.44,5.5,0,7.91,3.55,13.48,10.64,16.7,7.09,3.23,18.47,4.84,34.14,4.84h10.2v4.4h-108.19ZM1845.21,1924.96h117.05l-32.37-85.73c-3.85-9.96-7.39-19.49-10.64-28.58-3.26-9.08-6.28-17.81-9.09-26.16-2.81-8.35-5.4-16.49-7.76-24.4-2.07,6.45-3.99,12.38-5.77,17.8-1.77,5.43-3.55,10.77-5.32,16.05-1.77,5.28-3.77,10.92-5.99,16.93-2.22,6.01-4.65,12.97-7.32,20.88l-32.81,93.2Z"/>
        <path class="cls-2" d="M2167.99,2043.22v-4.4h5.76c7.98,0,14.7-1.17,20.18-3.52,5.47-2.34,9.53-5.86,12.19-10.55,2.66-4.68,3.99-10.55,3.99-17.59l-.68-271.07h-36.36c-14.78,0-26.6,1.76-35.47,5.27-8.87,3.52-13.89,6.83-18.82,15.64-4.62,8.26-6.65,20.08-7.54,34.73l-.89,14.51h-4.43l2.66-76.93h248.74l2.66,76.93h-4.43l-.89-14.51c-.89-14.65-3.3-26.28-7.54-34.73-3.91-7.78-11.26-12.13-19.97-15.64-8.72-3.52-20.62-5.27-35.69-5.27h-37.24l.68,271.07c0,7.03,1.33,12.9,3.99,17.59,2.66,4.69,6.72,8.21,12.19,10.55,5.47,2.35,12.19,3.52,20.17,3.52h5.77v4.4h-129.03Z"/>
        <path class="cls-2" d="M2529.78,2043.22v-4.4h5.77c7.98,0,14.7-1.17,20.17-3.52,5.47-2.34,9.53-5.86,12.19-10.55,2.66-4.68,3.99-10.55,3.99-17.59v-243.55c0-6.74-1.33-12.31-3.99-16.7-2.66-4.4-6.73-7.69-12.19-9.89-5.47-2.2-12.19-3.3-20.17-3.3h-5.77v-4.4h124.59c37.24,0,64.74,8.13,82.47,24.4,17.74,16.27,26.6,38.76,26.6,67.48,0,13.19-2.07,25.72-6.21,37.59-4.14,11.87-10.86,22.5-20.18,31.87-9.31,9.39-21.58,16.78-36.8,22.2-15.23,5.43-33.77,8.13-55.64,8.13h-27.93v86.17c0,7.03,1.33,12.9,3.99,17.59,2.66,4.69,6.72,8.21,12.19,10.55,5.47,2.35,12.19,3.52,20.18,3.52h5.76v4.4h-129.03ZM2639.6,1914.23c13.59,0,26.22-.52,35.68-4.03,9.46-3.52,16.71-7.87,22.77-15.35,6.06-7.47,10.49-17.15,13.3-29.02,2.81-11.87,4.21-26.16,4.21-42.86,0-21.39-2.29-38.61-6.87-51.66-4.59-13.04-11.9-22.57-21.95-28.58-10.05-6-23.36-9.01-39.9-9.01h-30.15l-.59,180.51h23.5Z"/>
        <path class="cls-2" d="M3682.76,1766.51c3.39-4.54,4.63-5.64,6.26-9.31,1.62-3.66,1.54-5.9,1.54-8.53,0-3.52-1.48-6.38-4.43-8.57-2.96-2.2-7.54-3.74-13.75-4.62s-14.04-1.32-23.5-1.32v-4.84h97.99v4.84c-6.5,0-12.86,1.25-19.06,3.74-6.21,2.49-12.86,6.82-19.95,12.97-7.09,6.15-15.37,14.51-24.83,25.06l-68.28,76.05,97.55,137.16c6.8,9.38,12.78,17.3,17.96,23.74,5.17,6.45,9.76,11.58,13.75,15.39,3.99,3.81,7.68,6.53,11.08,8.13,3.39,1.61,6.87,2.42,10.42,2.42h.89v4.4h-4.88c-14.78,0-26.98-.58-36.58-1.76-9.61-1.17-17.51-3.22-23.72-6.15-6.21-2.93-11.83-6.96-16.85-12.09-5.03-5.13-10.35-11.65-15.96-19.56l-83.36-118.26-30.59,34.73v87.05c0,7.03,1.33,12.9,3.99,17.59,2.66,4.69,6.72,8.21,12.19,10.55,5.47,2.35,12.19,3.52,20.18,3.52h5.76v4.4h-129.03v-4.4h5.77c7.98,0,14.7-1.17,20.17-3.52,5.47-2.34,9.53-5.86,12.19-10.55,2.66-4.68,3.99-10.55,3.99-17.59v-243.55c0-6.74-1.33-12.31-3.99-16.7-2.66-4.4-6.73-7.69-12.19-9.89-5.47-2.2-12.19-3.3-20.17-3.3h-5.77v-4.4h129.03v4.4h-5.76c-7.98,0-14.71,1.17-20.18,3.52-5.47,2.35-9.53,5.87-12.19,10.55-2.66,4.69-3.99,10.55-3.99,17.59l-.63,145.44"/>
        <path class="cls-2" d="M3148.19,2043.56v-4.4h5.76c7.98,0,14.7-1.17,20.17-3.52,5.47-2.34,9.53-5.86,12.19-10.55,2.66-4.68,3.99-10.55,3.99-17.59v-243.55c0-6.74-1.33-12.31-3.99-16.7-2.66-4.4-6.73-7.69-12.19-9.89-5.47-2.2-12.19-3.3-20.17-3.3h-5.76v-4.4h119.27c25.72,0,47,3.15,63.85,9.45,16.85,6.31,29.41,15.61,37.69,27.92,8.27,12.31,12.41,27.26,12.41,44.84s-3.48,30.99-10.42,41.99c-6.95,10.99-15.82,19.56-26.6,25.72-10.79,6.15-21.95,10.84-33.48,14.07l62.52,96.72c6.21,9.38,11.6,17.22,16.18,23.52,4.58,6.31,8.79,11.29,12.64,14.95,3.84,3.67,7.46,6.31,10.86,7.91,3.39,1.61,6.87,2.42,10.42,2.42h1.33v4.4h-6.21c-13.9,0-25.35-.51-34.36-1.54-9.02-1.02-16.48-2.86-22.39-5.5-5.92-2.64-11.16-6.52-15.74-11.65-4.59-5.12-9.53-11.79-14.85-20l-68.28-104.24h-27.93v106.88c0,7.03,1.33,12.9,3.99,17.59,2.66,4.69,6.72,8.21,12.19,10.55,5.46,2.35,12.19,3.52,20.17,3.52h5.76v4.4h-129.02ZM3266.13,1892.76c16.55,0,29.78-2.56,39.68-7.69,9.9-5.13,17.07-13.41,21.5-24.84,4.43-11.43,6.65-26.52,6.65-45.28s-2.29-34.95-6.87-46.82c-4.59-11.87-11.9-20.51-21.95-25.94-10.05-5.42-23.35-8.13-39.9-8.13h-30.15v158.71h31.04Z"/>
      </g>
      <polygon class="cls-3" points="4171.21 649.28 4056.34 649.95 3867.42 455.08 3865.48 649.36 3778.21 649.36 3780.45 75.87 3867.81 0 3867.47 409.72 4057.95 203.53 4170.15 203.53 3957.12 428.23 4171.21 649.28"/>
      <path class="cls-3" d="M3280.84,649.95c.32-142.84.16-427.18.16-427.18l88.72-.16s.32,26.32.32,45.17c18.79-26.11,49.94-50.49,81.11-58.27,31.17-7.78,68-8.54,99.43-1.92,44.44,9.36,82.21,31.33,108.63,68.35,32.83,46.01,28.14,105.21,27.24,161.77-1.15,71.61.45,212.23.45,212.23l-90.82-.31s-.09-126.45-.09-191.53c0-34.14,1.45-67.55-6.46-99.86-7.96-32.5-31.23-62.19-62.5-73.9-20.06-7.51-46.24-9.81-63.44-6.15-18.2,3.87-39.94,13.8-51.63,22.68-10.52,7.99-22.22,18.3-30.59,32.59-6.06,10.33-11.68,24.9-11.79,46.64-.4,75.65.88,194.19.48,269.84h-89.2Z"/>
      <path class="cls-3" d="M2136.17,1078.43l20.01,2s10.1-50.48-13.46-76.04c-39.24-42.57-119.58-37.4-162.15,10.45l-47.61-43.48c57.51-60.43,218.54-98.65,273.97.55,31.11,55.67,1.94,198.32,14.37,229.04,6.19,15.28,30.52,18.34,43.48,18.01l.55,79.68c-31.87,2.99-95.33,1.23-112.97-48.03-57.2,77.31-231.23,66.44-250.5-40.93-7.64-42.57,9.28-93.2,66.58-122.25,39.84-20.19,120.98-13,167.73-8.99ZM2131.25,1187.31c13.92-20.47,17.19-49.94,17.19-49.94,0,0-77.34-9.37-115.61-5.2-60.03,6.55-82.96,68.77-29.47,94.96,36.43,17.84,97.32,5.13,127.89-39.83Z"/>
      <path class="cls-4" d="M2798.45,906.15v-101.73l84.59.49v63.9l-84.59,37.34Z"/>
    </g>
  </g>
</svg>