<?xml version="1.0" encoding="UTF-8"?>
<svg id="LOGO-black_copy" data-name="LOGO-black copy" xmlns="http://www.w3.org/2000/svg" viewBox="0 0 4559.35 1556.34">
  <defs>
    <style>
      .cls-1 {
        fill: #221f20;
      }

      .cls-1, .cls-2 {
        stroke-width: 0px;
      }

      .cls-2 {
        fill: #ffa10b;
      }
    </style>
  </defs>
  <g id="frame_for_white" data-name="frame for white">
    <g id="Layer_4_copy_2" data-name="Layer 4 copy 2">
      <polygon class="cls-2" points="0 1299.81 0 409.68 376.59 484.78 377.01 1129.97 0 1299.81"/>
      <polyline class="cls-1" points="1194.33 191.81 1193.61 1359.37 1334.22 1301.21 1334.22 74.25 373.27 485.93 840.88 485.19 840.4 1505.22 890.97 1484.58 891.32 443.06 928.62 412.21 928.62 1468.92 979.41 1448.05 978.34 370.45 1016.95 338.56 1016.95 1432.68 1066.05 1412.14 1065.96 298.22 1104.97 265.89 1104.88 1395.84 1156.24 1374.99 1156.07 223.7"/>
      <path class="cls-1" d="M1896.48,650.73l-313.41-435.04,1.49,434.55h-89.4V73.68l99.41-1.18,318.39,445.84.31-445.84,88.54.61-.72,577.38-104.61.24Z"/>
      <path class="cls-1" d="M3151.31,1296.31c-17.93,0-35.9-.77-53.33-3.62-39.26-6.42-58.2-37.87-59.01-74.83-1.21-55.43-1.09-175.93-1.05-202.56l-94.15.08.17-72.41,94.32-.4v-137.2s78.81-67.61,78.81-67.61l.02,204.91,90.39.28-.09,72.56-90.33-.23c-.35,63.69-.54,170.2,1.17,182.75,1.1,8.04,3.49,10.1,7.99,13.33,4.87,3.49,13.6,4.58,17.53,4.66,16.05.35,35.98.2,47.89.12,3.2-.02,5.84-.04,7.67-.05.95,0,1.68,0,2.18,0,5.27.07,5.46,4.3,5.47,4.78l-.46,74.37-4.69.07c-6.21.1-12.63.26-18.83.42-10.47.27-21.08.54-31.7.54Z"/>
      <path class="cls-1" d="M1793.19,1175.23l62.07,33.94-2.99,4.4c-36.3,53.44-96.5,85.35-161.02,85.35-107.25,0-194.51-87.25-194.51-194.51,0-51.96,20.23-100.81,56.96-137.55,36.73-36.73,85.59-56.96,137.55-56.96,66.25,0,127.32,33.24,163.36,88.89l2.79,4.31-63.46,35.87-2.48-3.79c-11.2-17.08-25.53-30.34-42.61-39.41-17.36-9.23-37.15-13.91-58.82-13.91-33.44,0-64.29,12.44-86.88,35.02-22.6,22.6-35.03,53.45-35.03,86.88s12.76,64.14,35.92,86.86c23.08,22.62,54.28,35.06,87.84,35.06,41.92,0,76.08-16.28,98.81-47.07l2.5-3.39Z"/>
      <polygon class="cls-1" points="3780.67 801.95 3780.67 1297.36 3704.08 1297.36 3704.08 739.19 3780.67 801.95"/>
      <path class="cls-1" d="M2972.55,649.95h-92.12l-2.55-649.95,92.73,76.99,1.94,572.95Z"/>
      <path class="cls-2" d="M3080.2,186.02v-112.29l92.46.53v73.13l-92.46,38.63Z"/>
      <path class="cls-1" d="M3170.49,649.26h-91.22l.75-424.86h91.95l-1.49,424.86Z"/>
      <path class="cls-1" d="M4280.4,509.5h.25c2.5,22.77,18.03,42.82,37.74,54.66,19.7,11.84,43.14,16.27,66.15,16.82,22.1.52,45.39-2.8,63.01-16.08,17.62-13.28,27.31-38.73,17.12-58.25-7.08-13.57-21.67-21.46-35.99-27.02-38.26-14.83-79.85-18.59-119.44-29.42-39.59-10.84-79.69-31.19-98.58-67.46-15.53-29.83-13.85-67.05,1.27-97.09,15.12-30.04,42.61-52.99,73.73-66.02,31.12-13.03,65.67-16.64,99.34-14.09,39.58,2.99,79.41,14.84,110.3,39.64,30.9,24.79,54.78,63.04,51.73,102.42-26.2.16-55.52,1.02-81.72,1.19-4.63-22.41-18.93-42.36-37.75-55.51-18.82-13.16-41.87-19.74-64.85-20.38-20.83-.58-42.76,4.1-58.29,17.92-15.53,13.83-22.47,38.29-11.98,56.2,7.16,12.22,20.61,19.33,33.86,24.46,34.67,13.44,72.14,17.62,108.38,26.05,36.23,8.43,73.05,22.24,97.59,50.07,30.12,34.14,35.8,87.49,13.54,127.15-24.8,44.21-77.16,66.39-127.66,72.55-83.72,10.21-182.33-19.82-217.89-102.43-5.04-11.72-8.64-24.05-10.62-36.65,30.25.42,60.5.85,90.75,1.27Z"/>
      <path class="cls-1" d="M2578.02,649.4l-.62-446.55,95.87.2.31,48.76c2.8-3.75,6.32-7.88,10.71-12.16,17.89-17.4,33.92-28.36,57.2-33.96,31.01-7.46,74.86,1.25,76.33,1.59l3.9.82.24,88.01-7.32-1.88c-6.31-1.31-25.74-6.78-57.92-2.35-21.56,2.97-43.03,11.31-57.44,25.65-6.33,6.3-12.92,13.45-17.84,25.46-2.87,7-7.7,21.44-7.82,39.47-.41,57.83,1.07,259.62,1.07,261.63l-1,4.98-95.67.33Z"/>
      <path class="cls-1" d="M2394.72,649.32l.03-5.05c.05-8.39.02-16.95,0-25.22-.02-4.77-.03-9.63-.03-14.5-21.6,17.18-46.99,30.03-74.06,37.4-30.7,8.37-62.9,9.51-93.12,3.32-27.16-5.57-51.76-17.53-73.04-34.59-22.01-17.64-38.93-40.43-48.92-65.91-13.49-34.4-15.73-74.24-16.14-108.67-.9-75.75-1.05-226.36-1.04-227.86l1.03-4.98,92.91.07-.21,227.27c-.04,40.43,6.94,70.84,21.33,92.97,14.59,22.43,37.39,31.9,53.95,35.89,23.06,5.56,50.33,4.89,71.16-1.74,16.63-5.29,30.1-14.42,42.38-28.72,21.97-25.58,23.86-62.68,23.93-101.65.14-71.9.07-217.6.06-219.06v-5.01s94.88.06,94.88.06v5.01c0,1.53-.08,154.97.03,230.84.06,37.94-.17,203.39-.17,205.05v5s-94.98.1-94.98.1Z"/>
      <path class="cls-1" d="M2673.86,967.67c-34.56-36.77-82.28-57.02-134.39-57.02s-94.68,16.31-128.36,46.94l-1.17-46.88-75.04.59,1.1,645.03,74.72-60.51.85-245.66c36.16,31.83,79.03,49.12,127.9,49.12,52.1,0,99.83-20.25,134.39-57.02,33.84-36.01,52.47-84.77,52.47-137.3s-18.64-101.28-52.47-137.29ZM2651.42,1104.89c-.5,32.41-12.95,62.11-35.07,83.61-22.03,21.43-52.06,33.22-84.58,33.22s-61.98-12.27-83.74-34.57c-21.67-22.21-33.6-52.42-33.6-85.07s12.23-61.21,34.41-82.97c22.29-21.87,52.15-33.82,84.34-33.82.84,0,1.69,0,2.53.02,33.12.63,62.99,13.17,84.11,35.3,20.87,21.88,32.09,51.8,31.59,84.27Z"/>
      <path class="cls-1" d="M2798.32,1296.94v-354.06h84.86l-.1,353.95-84.76.11Z"/>
      <path class="cls-1" d="M3506.44,1080.53l20.01,2s10.1-50.48-13.46-76.04c-39.24-42.57-118.07-39.4-160.64,8.45l-49.12-43.12c57.51-60.43,218.54-97.01,273.97,2.18,31.11,55.67,1.94,198.32,14.37,229.04,6.19,15.28,30.52,18.34,43.48,18.01l.55,79.68c-31.87,2.99-95.33,1.23-112.97-48.03-57.2,77.31-231.23,66.44-250.5-40.93-7.64-42.57,9.28-93.2,66.58-122.25,39.84-20.19,120.98-13,167.73-8.99ZM3501.53,1189.41c13.92-20.47,17.19-49.94,17.19-49.94,0,0-77.34-9.37-115.61-5.2-60.03,6.55-82.96,68.77-29.47,94.96,36.43,17.84,97.32,5.13,127.89-39.83Z"/>
      <polygon class="cls-1" points="4171.21 649.28 4056.34 649.95 3867.42 455.08 3865.48 649.36 3778.21 649.36 3780.45 75.87 3867.81 0 3867.47 409.72 4057.95 203.53 4170.15 203.53 3957.12 428.23 4171.21 649.28"/>
      <path class="cls-1" d="M3280.84,649.95c.32-142.84.16-427.18.16-427.18l88.72-.16s.32,26.32.32,45.17c18.79-26.11,49.94-50.49,81.11-58.27,31.17-7.78,68-8.54,99.43-1.92,44.44,9.36,82.21,31.33,108.63,68.35,32.83,46.01,28.14,105.21,27.24,161.77-1.15,71.61.45,212.23.45,212.23l-90.82-.31s-.09-126.45-.09-191.53c0-34.14,1.45-67.55-6.46-99.86-7.96-32.5-31.23-62.19-62.5-73.9-20.06-7.51-46.24-9.81-63.44-6.15-18.2,3.87-39.94,13.8-51.63,22.68-10.52,7.99-22.22,18.3-30.59,32.59-6.06,10.33-11.68,24.9-11.79,46.64-.4,75.65.88,194.19.48,269.84h-89.2Z"/>
      <path class="cls-1" d="M2136.17,1078.43l20.01,2s10.1-50.48-13.46-76.04c-39.24-42.57-119.58-37.4-162.15,10.45l-47.61-43.48c57.51-60.43,218.54-98.65,273.97.55,31.11,55.67,1.94,198.32,14.37,229.04,6.19,15.28,30.52,18.34,43.48,18.01l.55,79.68c-31.87,2.99-95.33,1.23-112.97-48.03-57.2,77.31-231.23,66.44-250.5-40.93-7.64-42.57,9.28-93.2,66.58-122.25,39.84-20.19,120.98-13,167.73-8.99ZM2131.25,1187.31c13.92-20.47,17.19-49.94,17.19-49.94,0,0-77.34-9.37-115.61-5.2-60.03,6.55-82.96,68.77-29.47,94.96,36.43,17.84,97.32,5.13,127.89-39.83Z"/>
      <path class="cls-2" d="M2798.45,906.15v-101.73l84.59.49v63.9l-84.59,37.34Z"/>
    </g>
  </g>
</svg>