<?xml version="1.0" encoding="UTF-8"?>
<svg id="LOGO-black_copy" data-name="LOGO-black copy" xmlns="http://www.w3.org/2000/svg" viewBox="0 0 6930.99 3473.25">
  <defs>
    <style>
      .cls-1 {
        fill: #221f20;
        stroke-width: 0px;
      }

      .cls-2 {
        fill: none;
        stroke: #000;
        stroke-miterlimit: 10;
        stroke-width: .25px;
      }
    </style>
  </defs>
  <g id="frame_for_white" data-name="frame for white">
    <g id="Layer_4_copy_2" data-name="Layer 4 copy 2">
      <path class="cls-2" d="M6929.12,3473.13H.12V.12h6929v3473ZM6912.12,17.12H17.12v3439h6895M6930.86,3464.41H18.86V8.41h6912v3456Z"/>
      <g>
        <g>
          <g>
            <path class="cls-1" d="M3083.91,2874.37l-9.48-32.35c-3.31-11.37-12.35-19.23-22.93-19.23h-39.24v65.14h-18.3v-154.1h69.66c32.19,0,55.11,18.36,55.11,44.15,0,21.42-16.09,37.82-42.11,41.31v.22c8.38,4.15,13.67,11.59,16.31,20.77l7.72,27.76c1.32,5.25,4.41,8.96,9.26,8.96s10.14-3.93,13.67-10.05l9.26,10.71c-6.39,8.74-15.65,14.65-26.45,14.65-12.35,0-19.4-7.43-22.49-17.92ZM3063.63,2806.61c21.6,0,36.82-11.59,36.82-28.2s-15.21-28.42-36.82-28.42h-51.37v56.61h51.37Z"/>
            <path class="cls-1" d="M3201.19,2733.82h106.26v16.17h-88.4v50.49h79.58v15.74h-79.58v55.52h90.61v16.18h-108.46v-154.1Z"/>
            <path class="cls-1" d="M3432.89,2733.82h22.05l59.96,154.1h-19.4l-14.11-36.94h-74.95l-14.33,36.94h-19.62l60.4-154.1ZM3475.88,2834.8l-31.75-83.06h-.44l-31.97,83.06h64.15Z"/>
            <path class="cls-1" d="M3585.44,2733.82h18.3v137.93h79.58v16.18h-97.88v-154.1Z"/>
            <path class="cls-1" d="M3794.87,2749.99h-52.03v-16.17h122.35v16.17h-52.03v137.93h-18.3v-137.93Z"/>
            <path class="cls-1" d="M3980.71,2830.65l-56-96.83h20.28l44.97,79.35h.22l43.87-79.35h20.72l-55.78,96.83v57.27h-18.3v-57.27Z"/>
          </g>
          <rect class="cls-1" x="2030.75" y="2802.96" width="800.04" height="17.83"/>
          <rect class="cls-1" x="4188.57" y="2800.96" width="763.52" height="17.15"/>
        </g>
        <g>
          <path class="cls-1" d="M2172.77,2592.43c-34.29,0-62.74-6.74-85.35-20.22-22.61-13.48-39.46-32.31-50.55-56.49s-16.63-52.53-16.63-85.07,5.47-59.57,16.4-83.75c10.93-24.18,27.56-43.08,49.88-56.71,22.32-13.63,50.47-20.44,84.47-20.44,21.87,0,40.42,2.05,55.64,6.15,15.22,4.11,26.83,9.75,34.81,16.93,7.98,7.18,11.97,15.46,11.97,24.84,0,9.97-3.18,17.52-9.53,22.64-6.36,5.13-16.92,8.28-31.7,9.45,0-18.17-2.15-32.82-6.43-43.96-4.29-11.13-11.02-19.19-20.18-24.18-9.16-4.98-21.28-7.47-36.36-7.47-23.94,0-43.23,5.21-57.86,15.61-14.63,10.41-25.27,27.11-31.92,50.12-6.65,23.01-9.98,53.27-9.98,90.78s3.69,68.22,11.08,91.22c7.38,23.01,18.34,41.25,35.47,50.34,15.94,8.46,37.61,11.71,63.92,11.71,8.57,0,16.85-.66,24.83-1.98,7.98-1.32,15.07-2.86,21.28-4.62l-.07-100.08c0-6.74-1.33-12.31-3.99-16.7-2.66-4.4-6.73-7.69-12.19-9.89-5.47-2.2-12.19-3.3-20.18-3.3h-1.77v-4.4h115.28v4.4h-1.77c-7.69,0-13.75,1.17-18.18,3.52-4.43,2.35-7.61,5.87-9.53,10.55-1.93,4.69-2.88,10.55-2.88,17.59v93.2c-14.78,6.75-30,11.8-45.67,15.17-15.67,3.37-33.11,5.06-52.32,5.06Z"/>
          <path class="cls-1" d="M2350.57,2588.03v-4.4h5.76c7.98,0,14.7-1.17,20.17-3.52,5.47-2.34,9.53-5.86,12.19-10.55,2.66-4.68,3.99-10.55,3.99-17.59v-243.55c0-6.74-1.33-12.31-3.99-16.7-2.66-4.4-6.73-7.69-12.19-9.89-5.47-2.2-12.19-3.3-20.17-3.3h-5.76v-4.4h119.27c25.72,0,47,3.15,63.85,9.45,16.85,6.31,29.41,15.61,37.69,27.92,8.27,12.31,12.41,27.26,12.41,44.84s-3.48,30.99-10.42,41.99c-6.95,10.99-15.82,19.56-26.6,25.72-10.79,6.15-21.95,10.84-33.48,14.07l62.52,96.72c6.21,9.38,11.6,17.22,16.18,23.52,4.58,6.31,8.79,11.29,12.64,14.95,3.84,3.67,7.46,6.31,10.86,7.91,3.39,1.61,6.87,2.42,10.42,2.42h1.33v4.4h-6.21c-13.9,0-25.35-.51-34.36-1.54-9.02-1.02-16.48-2.86-22.39-5.5-5.92-2.64-11.16-6.52-15.74-11.65-4.59-5.12-9.53-11.79-14.85-20l-68.28-104.24h-27.93v106.88c0,7.03,1.33,12.9,3.99,17.59,2.66,4.69,6.72,8.21,12.19,10.55,5.46,2.35,12.19,3.52,20.17,3.52h5.76v4.4h-129.02ZM2468.51,2437.24c16.55,0,29.78-2.56,39.68-7.69,9.9-5.13,17.07-13.41,21.5-24.84,4.43-11.43,6.65-26.52,6.65-45.28s-2.29-34.95-6.87-46.82c-4.59-11.87-11.9-20.51-21.95-25.94-10.05-5.42-23.35-8.13-39.9-8.13h-30.15v158.71h31.04Z"/>
          <path class="cls-1" d="M2663.72,2587.83v-4.4h5.76c7.98,0,14.7-1.17,20.17-3.52,5.47-2.34,9.53-5.86,12.19-10.55,2.66-4.68,3.99-10.55,3.99-17.59v-243.55c0-6.74-1.33-12.31-3.99-16.7-2.66-4.4-6.73-7.69-12.19-9.89-5.47-2.2-12.19-3.3-20.17-3.3h-5.76v-4.4h223.02l2.66,76.93h-4.43l-.89-14.51c-.89-14.65-3.4-26.23-7.54-34.73-4.14-8.5-10.57-14.51-19.29-18.03-8.72-3.52-20.62-5.27-35.69-5.27h-70.94v142.88h111.29v7.19h-111.29l-.16,152.71,82.19.2c15.96,0,28.67.37,38.13-3.14,9.46-3.52,16.33-9.52,20.62-18.02,4.28-8.5,6.88-20.07,7.76-34.73l.89-14.51h4.43l-3.1,76.93h-237.65Z"/>
          <path class="cls-1" d="M3960.26,2588.18v-4.4h12.86c6.5,0,8.16-1.02,12.6-3.08,4.43-2.05,8.27-5.56,11.53-10.55,3.25-4.98,6.35-11.87,9.31-20.66l96.66-275.21h26.42l111.29,286.2c2.36,5.86,4.73,10.48,7.09,13.85,2.36,3.37,5.1,5.79,8.2,7.25,3.1,1.47,6.72,2.2,10.86,2.2h5.76v4.4h-121.93v-4.4h10.2c11.23,0,19.36-1.32,24.39-3.96,5.02-2.64,7.54-7.32,7.54-14.07,0-1.76-.15-3.58-.44-5.5-.3-1.9-.66-4.02-1.11-6.37-.44-2.34-1.26-4.84-2.44-7.47l-26.58-69.54h-122.06l-22.95,66.46c-.89,2.35-1.63,4.69-2.22,7.03-.6,2.35-1.04,4.47-1.33,6.38-.3,1.91-.44,3.74-.44,5.5,0,7.91,3.55,13.48,10.64,16.7,7.09,3.23,18.47,4.84,34.14,4.84h10.2v4.4h-108.19ZM4043.17,2469.92h117.05l-32.37-85.73c-3.85-9.96-7.39-19.49-10.64-28.58-3.26-9.08-6.28-17.81-9.09-26.16-2.81-8.35-5.4-16.49-7.76-24.4-2.07,6.45-3.99,12.38-5.77,17.8-1.77,5.43-3.55,10.77-5.32,16.05-1.77,5.28-3.77,10.92-5.99,16.93-2.22,6.01-4.65,12.97-7.32,20.88l-32.81,93.2Z"/>
          <path class="cls-1" d="M2945.14,2588.03v-4.4h12.86c6.5,0,8.16-1.02,12.6-3.08,4.43-2.05,8.27-5.56,11.53-10.55,3.25-4.98,6.35-11.87,9.31-20.66l96.66-275.21h26.42l111.29,286.2c2.36,5.86,4.73,10.48,7.09,13.85,2.36,3.37,5.1,5.79,8.2,7.25,3.1,1.47,6.72,2.2,10.86,2.2h5.76v4.4h-121.93v-4.4h10.2c11.23,0,19.36-1.32,24.39-3.96,5.02-2.64,7.54-7.32,7.54-14.07,0-1.76-.15-3.58-.44-5.5-.3-1.9-.66-4.02-1.11-6.37-.44-2.34-1.26-4.84-2.44-7.47l-26.58-69.54h-122.06l-22.95,66.46c-.89,2.35-1.63,4.69-2.22,7.03-.6,2.35-1.04,4.47-1.33,6.38-.3,1.91-.44,3.74-.44,5.5,0,7.91,3.55,13.48,10.64,16.7,7.09,3.23,18.47,4.84,34.14,4.84h10.2v4.4h-108.19ZM3028.06,2469.77h117.05l-32.37-85.73c-3.85-9.96-7.39-19.49-10.64-28.58-3.26-9.08-6.28-17.81-9.09-26.16-2.81-8.35-5.4-16.49-7.76-24.4-2.07,6.45-3.99,12.38-5.77,17.8-1.77,5.43-3.55,10.77-5.32,16.05-1.77,5.28-3.77,10.92-5.99,16.93-2.22,6.01-4.65,12.97-7.32,20.88l-32.81,93.2Z"/>
          <path class="cls-1" d="M3350.84,2588.03v-4.4h5.76c7.98,0,14.7-1.17,20.18-3.52,5.47-2.34,9.53-5.86,12.19-10.55,2.66-4.68,3.99-10.55,3.99-17.59l-.68-271.07h-36.36c-14.78,0-26.6,1.76-35.47,5.27-8.87,3.52-13.89,6.83-18.82,15.64-4.62,8.26-6.65,20.08-7.54,34.73l-.89,14.51h-4.43l2.66-76.93h248.74l2.66,76.93h-4.43l-.89-14.51c-.89-14.65-3.3-26.28-7.54-34.73-3.91-7.78-11.26-12.13-19.97-15.64-8.72-3.52-20.62-5.27-35.69-5.27h-37.24l.68,271.07c0,7.03,1.33,12.9,3.99,17.59,2.66,4.69,6.72,8.21,12.19,10.55,5.47,2.35,12.19,3.52,20.17,3.52h5.77v4.4h-129.03Z"/>
          <path class="cls-1" d="M3712.63,2588.03v-4.4h5.77c7.98,0,14.7-1.17,20.17-3.52,5.47-2.34,9.53-5.86,12.19-10.55,2.66-4.68,3.99-10.55,3.99-17.59v-243.55c0-6.74-1.33-12.31-3.99-16.7-2.66-4.4-6.73-7.69-12.19-9.89-5.47-2.2-12.19-3.3-20.17-3.3h-5.77v-4.4h124.59c37.24,0,64.74,8.13,82.47,24.4,17.74,16.27,26.6,38.76,26.6,67.48,0,13.19-2.07,25.72-6.21,37.59-4.14,11.87-10.86,22.5-20.18,31.87-9.31,9.39-21.58,16.78-36.8,22.2-15.23,5.43-33.77,8.13-55.64,8.13h-27.93v86.17c0,7.03,1.33,12.9,3.99,17.59,2.66,4.69,6.72,8.21,12.19,10.55,5.47,2.35,12.19,3.52,20.18,3.52h5.76v4.4h-129.03ZM3822.45,2459.04c13.59,0,26.22-.52,35.68-4.03,9.46-3.52,16.71-7.87,22.77-15.35,6.06-7.47,10.49-17.15,13.3-29.02,2.81-11.87,4.21-26.16,4.21-42.86,0-21.39-2.29-38.61-6.87-51.66-4.59-13.04-11.9-22.57-21.95-28.58-10.05-6-23.36-9.01-39.9-9.01h-30.15l-.59,180.51h23.5Z"/>
          <path class="cls-1" d="M4865.61,2311.32c3.39-4.54,4.63-5.64,6.26-9.31,1.62-3.66,1.54-5.9,1.54-8.53,0-3.52-1.48-6.38-4.43-8.57-2.96-2.2-7.54-3.74-13.75-4.62s-14.04-1.32-23.5-1.32v-4.84h97.99v4.84c-6.5,0-12.86,1.25-19.06,3.74-6.21,2.49-12.86,6.82-19.95,12.97-7.09,6.15-15.37,14.51-24.83,25.06l-68.28,76.05,97.55,137.16c6.8,9.38,12.78,17.3,17.96,23.74,5.17,6.45,9.76,11.58,13.75,15.39,3.99,3.81,7.68,6.53,11.08,8.13,3.39,1.61,6.87,2.42,10.42,2.42h.89v4.4h-4.88c-14.78,0-26.98-.58-36.58-1.76-9.61-1.17-17.51-3.22-23.72-6.15-6.21-2.93-11.83-6.96-16.85-12.09-5.03-5.13-10.35-11.65-15.96-19.56l-83.36-118.26-30.59,34.73v87.05c0,7.03,1.33,12.9,3.99,17.59,2.66,4.69,6.72,8.21,12.19,10.55,5.47,2.35,12.19,3.52,20.18,3.52h5.76v4.4h-129.03v-4.4h5.77c7.98,0,14.7-1.17,20.17-3.52,5.47-2.34,9.53-5.86,12.19-10.55,2.66-4.68,3.99-10.55,3.99-17.59v-243.55c0-6.74-1.33-12.31-3.99-16.7-2.66-4.4-6.73-7.69-12.19-9.89-5.47-2.2-12.19-3.3-20.17-3.3h-5.77v-4.4h129.03v4.4h-5.76c-7.98,0-14.71,1.17-20.18,3.52-5.47,2.35-9.53,5.87-12.19,10.55-2.66,4.69-3.99,10.55-3.99,17.59l-.63,145.44"/>
          <path class="cls-1" d="M4331.04,2588.37v-4.4h5.76c7.98,0,14.7-1.17,20.17-3.52,5.47-2.34,9.53-5.86,12.19-10.55,2.66-4.68,3.99-10.55,3.99-17.59v-243.55c0-6.74-1.33-12.31-3.99-16.7-2.66-4.4-6.73-7.69-12.19-9.89-5.47-2.2-12.19-3.3-20.17-3.3h-5.76v-4.4h119.27c25.72,0,47,3.15,63.85,9.45,16.85,6.31,29.41,15.61,37.69,27.92,8.27,12.31,12.41,27.26,12.41,44.84s-3.48,30.99-10.42,41.99c-6.95,10.99-15.82,19.56-26.6,25.72-10.79,6.15-21.95,10.84-33.48,14.07l62.52,96.72c6.21,9.38,11.6,17.22,16.18,23.52,4.58,6.31,8.79,11.29,12.64,14.95,3.84,3.67,7.46,6.31,10.86,7.91,3.39,1.61,6.87,2.42,10.42,2.42h1.33v4.4h-6.21c-13.9,0-25.35-.51-34.36-1.54-9.02-1.02-16.48-2.86-22.39-5.5-5.92-2.64-11.16-6.52-15.74-11.65-4.59-5.12-9.53-11.79-14.85-20l-68.28-104.24h-27.93v106.88c0,7.03,1.33,12.9,3.99,17.59,2.66,4.69,6.72,8.21,12.19,10.55,5.46,2.35,12.19,3.52,20.17,3.52h5.76v4.4h-129.02ZM4448.98,2437.57c16.55,0,29.78-2.56,39.68-7.69,9.9-5.13,17.07-13.41,21.5-24.84,4.43-11.43,6.65-26.52,6.65-45.28s-2.29-34.95-6.87-46.82c-4.59-11.87-11.9-20.51-21.95-25.94-10.05-5.42-23.35-8.13-39.9-8.13h-30.15v158.71h31.04Z"/>
        </g>
      </g>
    </g>
  </g>
</svg>